<?xml version="1.0" encoding="UTF-8" standalone="no"?>
<!DOCTYPE svg PUBLIC "-//W3C//DTD SVG 20010904//EN"
              "http://www.w3.org/TR/2001/REC-SVG-20010904/DTD/svg10.dtd">

<svg xmlns="http://www.w3.org/2000/svg"
     width="6.94444in" height="2.77778in"
     viewBox="0 0 500 200">
  <path id="Selection"
        fill="none" stroke="black" stroke-width="1"
        d="M 249.00,64.00
           C 249.00,64.00 235.00,125.00 235.00,125.00
             231.15,124.99 228.61,125.88 227.00,122.00
             215.74,128.95 200.22,128.63 200.23,112.00
             199.96,108.87 199.89,105.05 200.23,102.00
             202.12,93.24 209.16,83.19 218.00,80.64
             220.63,79.87 224.23,79.97 227.00,80.00
             231.76,80.07 232.58,80.34 237.00,82.00
             237.00,82.00 241.00,64.00 241.00,64.00
             241.00,64.00 249.00,64.00 249.00,64.00 Z
           M 271.00,66.00
           C 271.00,66.00 270.00,74.00 270.00,74.00
             270.00,74.00 261.00,74.00 261.00,74.00
             261.00,74.00 262.00,66.00 262.00,66.00
             262.00,66.00 271.00,66.00 271.00,66.00 Z
           M 81.00,67.00
           C 81.00,67.00 69.00,118.00 69.00,118.00
             69.00,118.00 97.00,118.00 97.00,118.00
             96.86,120.32 97.00,123.21 94.57,124.43
             92.90,125.26 86.19,125.00 84.00,125.00
             84.00,125.00 58.00,125.00 58.00,125.00
             58.00,125.00 71.00,67.00 71.00,67.00
             71.00,67.00 81.00,67.00 81.00,67.00 Z
           M 137.00,80.77
           C 144.04,83.86 145.91,89.00 146.00,96.00
             146.21,113.80 137.93,126.22 119.00,126.00
             105.78,125.84 102.87,118.77 103.00,107.00
             103.15,94.20 109.45,84.27 122.00,80.77
             126.08,79.86 133.17,79.45 137.00,80.77 Z
           M 189.57,83.39
           C 192.50,86.50 192.27,92.03 191.70,96.00
             191.70,96.00 185.00,125.00 185.00,125.00
             185.00,125.00 176.00,125.00 176.00,125.00
             176.00,125.00 177.00,122.00 177.00,122.00
             166.38,127.44 150.26,130.27 151.04,113.00
             151.56,101.58 161.25,97.98 171.00,96.44
             174.05,95.96 181.44,96.67 182.59,93.69
             183.41,92.45 183.06,91.23 182.59,90.14
             179.88,86.41 173.89,86.74 170.00,87.30
             170.00,87.30 160.00,89.00 160.00,89.00
             160.00,89.00 161.00,81.00 161.00,81.00
             168.27,80.41 184.18,77.68 189.57,83.39 Z
           M 304.00,80.02
           C 321.45,80.53 313.70,100.74 311.42,111.00
             310.77,113.93 309.51,122.27 307.28,124.01
             305.66,125.26 302.00,124.99 300.00,125.00
             300.55,118.48 303.26,109.62 304.87,103.00
             305.61,99.95 307.11,94.98 305.74,92.06
             302.53,85.24 292.43,88.82 288.30,92.63
             285.60,95.13 284.99,99.54 284.13,103.00
             284.13,103.00 279.00,125.00 279.00,125.00
             279.00,125.00 271.00,125.00 271.00,125.00
             271.00,125.00 279.94,85.05 279.94,85.05
             281.51,80.41 287.00,79.18 289.00,84.00
             295.19,80.50 296.83,79.80 304.00,80.02 Z
           M 324.01,116.98
           C 322.80,114.10 322.97,110.12 323.00,107.00
             323.11,98.14 326.25,91.08 333.01,85.21
             341.89,77.52 349.79,80.37 360.00,81.03
             360.00,81.03 369.00,81.03 369.00,81.03
             369.00,81.03 360.42,116.00 360.42,116.00
             358.64,123.92 356.14,132.82 348.91,137.52
             341.46,142.37 328.48,141.52 320.00,140.00
             320.00,140.00 321.00,132.00 321.00,132.00
             331.15,132.91 341.05,138.29 348.16,127.00
             349.43,124.99 350.24,122.26 351.00,120.00
             343.65,125.01 328.27,127.20 324.01,116.98 Z
           M 255.63,95.00
           C 255.63,95.00 259.14,82.57 259.14,82.57
             259.14,82.57 267.00,81.00 267.00,81.00
             267.00,81.00 257.00,125.00 257.00,125.00
             257.00,125.00 249.00,125.00 249.00,125.00
             249.00,125.00 255.63,95.00 255.63,95.00 Z
           M 112.02,109.00
           C 112.18,114.64 113.82,118.28 120.00,118.89
             132.77,120.14 137.29,107.53 136.98,97.00
             136.89,93.74 136.60,90.87 133.77,88.74
             130.96,86.61 127.26,86.95 124.00,87.42
             114.38,90.83 111.74,99.61 112.02,109.00 Z
           M 209.09,105.00
           C 208.40,114.49 211.18,120.63 222.00,117.35
             230.89,114.66 230.95,106.72 232.87,99.00
             233.46,96.66 235.18,91.63 233.89,89.51
             231.89,86.23 224.23,86.94 221.00,87.43
             213.35,90.44 209.67,97.02 209.09,105.00 Z
           M 336.56,92.18
           C 331.45,98.21 326.27,119.80 345.00,115.47
             354.87,113.19 354.58,106.38 356.42,98.00
             356.94,95.67 358.32,91.63 356.94,89.51
             354.81,86.24 347.32,86.93 344.00,87.42
             340.76,88.56 338.86,89.46 336.56,92.18 Z
           M 172.00,103.23
           C 166.76,104.41 158.75,106.98 160.33,113.94
             161.87,120.70 172.98,117.65 176.75,114.73
             180.22,112.04 180.66,107.08 181.00,103.23
             177.91,103.00 175.06,102.91 172.00,103.23 Z
           M 387.00,114.00
           C 386.48,125.20 385.12,125.00 375.00,125.00
             375.52,113.80 376.88,114.00 387.00,114.00 Z
           M 416.00,114.00
           C 415.48,125.20 414.12,125.00 404.00,125.00
             404.52,113.80 405.88,114.00 416.00,114.00 Z
           M 445.00,114.00
           C 444.48,125.20 443.12,125.00 433.00,125.00
             433.52,113.80 434.88,114.00 445.00,114.00 Z" />
</svg>
